<svg width="250" height="102" viewBox="0 0 250 102" fill="none" xmlns="http://www.w3.org/2000/svg">
<rect x="4" y="4" width="242" height="94" stroke="white" stroke-opacity="0.2" stroke-width="8"/>
<path d="M38.4566 73H69.2366V65.08H48.1766V31H38.4566V73ZM94.3044 73.72C107.504 73.72 117.284 64.54 117.284 52C117.284 39.46 107.504 30.28 94.3044 30.28C81.0444 30.28 71.3244 39.52 71.3244 52C71.3244 64.48 81.0444 73.72 94.3044 73.72ZM94.3044 65.44C86.8044 65.44 81.1644 59.98 81.1644 52C81.1644 44.02 86.8044 38.56 94.3044 38.56C101.804 38.56 107.444 44.02 107.444 52C107.444 59.98 101.804 65.44 94.3044 65.44ZM152.969 63.64C150.509 64.96 148.049 65.44 145.409 65.44C137.369 65.44 131.789 59.86 131.789 52C131.789 44.02 137.369 38.56 145.529 38.56C149.789 38.56 153.329 40.06 156.389 43.3L162.629 37.54C158.549 32.8 152.429 30.28 145.049 30.28C131.669 30.28 121.949 39.34 121.949 52C121.949 64.66 131.669 73.72 144.869 73.72C150.869 73.72 157.229 71.86 161.849 68.38V51.34H152.969V63.64ZM191.218 73.72C204.418 73.72 214.198 64.54 214.198 52C214.198 39.46 204.418 30.28 191.218 30.28C177.958 30.28 168.238 39.52 168.238 52C168.238 64.48 177.958 73.72 191.218 73.72ZM191.218 65.44C183.718 65.44 178.078 59.98 178.078 52C178.078 44.02 183.718 38.56 191.218 38.56C198.718 38.56 204.358 44.02 204.358 52C204.358 59.98 198.718 65.44 191.218 65.44Z" fill="white" fill-opacity="0.2"/>
</svg>
